
<svg width="39px" height="43px" viewBox="0 0 39 43" version="1.1" xmlns="http://www.w3.org/2000/svg" xmlns:xlink="http://www.w3.org/1999/xlink">
    <!-- Generator: Sketch 45.2 (43514) - http://www.bohemiancoding.com/sketch -->
    <desc>Created with Sketch.</desc>
    <defs></defs>
    <g id="Welcome" stroke="none" stroke-width="1" fill="none" fill-rule="evenodd">
        <g id="Desktop-HD" transform="translate(-937.000000, -6692.000000)" fill-rule="nonzero" fill="#484848">
            <g id="10_Icons" transform="translate(288.000000, 5803.000000)">
                <g id="Refresh" transform="translate(571.000000, 889.000000)">
                    <g id="ud-icon-refresh" transform="translate(78.000000, 0.000000)">
                        <path d="M38,23.5625 C37.4375,23 36.6875,22.625 35.9375,22.625 C34.4375,22.625 33.3125,23.75 33.125,25.0625 C32.375,32 26.375,37.0625 19.25,36.875 C12.3125,36.5 6.5,30.875 6.3125,23.9375 C6.125,20.1875 7.4375,16.8125 10.0625,14.1875 C12.5,11.75 15.5,10.25 19.0625,10.0625 C18.875,10.25 18.5,10.625 18.5,11 C18.125,11.75 18.125,12.5 18.5,13.25 C18.6875,14 19.25,14.5625 20,14.75 C20.75,15.125 21.5,15.125 22.25,14.75 L29,12.125 C30.125,11.75 30.6875,10.4375 30.3125,9.3125 L27.6875,2.1875 C27.125,0.6875 25.4375,-0.0625 23.9375,0.5 C23.1875,0.6875 22.625,1.25 22.4375,2 C22.25,2.75 22.0625,3.5 22.4375,4.25 L22.625,4.625 C19.25,4.0625 15.875,4.625 12.6875,5.9375 C5.375,9.125 0.6875,16.0625 0.875,23.5625 C0.875,34.0625 9.5,42.5 20,42.5 C29.75,42.5 37.8125,35.1875 38.9375,25.625 C38.75,24.875 38.375,24.125 38,23.5625 Z" id="Shape"></path>
                    </g>
                </g>
            </g>
        </g>
    </g>
</svg>
