
<svg width="51px" height="30px" viewBox="0 0 51 30" version="1.1" xmlns="http://www.w3.org/2000/svg" xmlns:xlink="http://www.w3.org/1999/xlink">
    <!-- Generator: Sketch 45.2 (43514) - http://www.bohemiancoding.com/sketch -->
    <desc>Created with Sketch.</desc>
    <defs></defs>
    <g id="Welcome" stroke="none" stroke-width="1" fill="none" fill-rule="evenodd">
        <g id="Desktop-HD" transform="translate(-932.000000, -6308.000000)" fill="#484848">
            <g id="10_Icons" transform="translate(288.000000, 5803.000000)">
                <g id="Dropdown" transform="translate(571.000000, 505.000000)">
                    <path d="M122.015558,1.36641631 C120.19206,-0.455472103 117.444742,-0.455472103 115.624464,1.36641631 L98.4388412,18.5520386 L81.2516094,1.36641631 C79.4667382,-0.420064378 76.458691,-0.43776824 74.361588,1.36641631 C73.4844421,2.24356223 73,3.37821888 73,4.5611588 C73,5.74409871 73.4844421,6.87875536 74.361588,7.75590129 L95.6190987,29.0118026 C96.2451717,29.639485 97.181867,30 98.1877682,30 C99.195279,30 100.130365,29.639485 100.758047,29.0118026 L122.015558,7.75590129 C123.835837,5.93401288 123.835837,3.18669528 122.015558,1.36641631" id="Fill-1"></path>
                </g>
            </g>
        </g>
    </g>
</svg>
