<svg width="54px" height="45px" viewBox="0 0 54 45" version="1.1" xmlns="http://www.w3.org/2000/svg" xmlns:xlink="http://www.w3.org/1999/xlink">
    <!-- Generator: Sketch 45.2 (43514) - http://www.bohemiancoding.com/sketch -->
    <desc>Created with Sketch.</desc>
    <defs></defs>
    <g id="Welcome" stroke="none" stroke-width="1" fill="none" fill-rule="evenodd">
        <g id="Desktop-HD" transform="translate(-359.000000, -6117.000000)" fill-rule="nonzero" fill="#525252">
            <g id="10_Icons" transform="translate(288.000000, 5803.000000)">
                <g id="Health" transform="translate(0.000000, 314.000000)">
                    <g id="CCD-Icon-05" transform="translate(71.000000, 0.000000)">
                        <path d="M53.4,12.9 C52.5,7.35 47.25,1.8 41.7,0.75 C40.35,0.45 39,0.3 37.65,0.45 C34.05,0.6 30.6,2.1 27.75,4.35 L27,5.1 C27,5.1 27,5.1 27,5.1 L26.4,4.5 C22.8,1.5 18.3,-0.15 13.65,0.45 C13.2,0.45 12.75,0.6 12.3,0.6 C6.9,1.65 1.5,7.35 0.6,12.75 C-0.3,18.3 1.8,24 6.15,27.75 L23.85,43.5 C25.65,45.15 28.35,45.15 30.15,43.5 L48,27.9 C52.2,24.15 54.3,18.45 53.4,12.9 Z" id="Shape"></path>
                    </g>
                </g>
            </g>
        </g>
    </g>
</svg>
