
<svg width="39px" height="45px" viewBox="0 0 39 45" version="1.1" xmlns="http://www.w3.org/2000/svg" xmlns:xlink="http://www.w3.org/1999/xlink">
    <!-- Generator: Sketch 45.2 (43514) - http://www.bohemiancoding.com/sketch -->
    <desc>Created with Sketch.</desc>
    <defs></defs>
    <g id="Welcome" stroke="none" stroke-width="1" fill="none" fill-rule="evenodd">
        <g id="Desktop-HD" transform="translate(-1223.000000, -5925.000000)">
            <g id="10_Icons" transform="translate(288.000000, 5803.000000)">
                <g id="Trash" transform="translate(856.000000, 122.000000)">
                    <g id="ud-icon-trash" transform="translate(79.000000, 0.000000)">
                        <rect id="Rectangle-path" x="14.4" y="5.25" width="10.2" height="2.4"></rect>
                        <path d="M6.45,41.1 C6.45,42.9 7.8,44.25 9.6,44.25 L29.55,44.25 C31.35,44.25 32.7,42.9 32.7,41.1 L32.7,14.7 L6.45,14.7 L6.45,41.1 Z" id="Shape" fill="#404041" fill-rule="nonzero"></path>
                        <path d="M36.6,7.65 L29.1,7.65 L29.1,5.25 C29.1,2.85 27.15,0.75 24.6,0.75 L14.4,0.75 C12,0.75 9.9,2.7 9.9,5.25 L9.9,7.65 L2.4,7.65 C1.2,7.65 0.3,8.55 0.3,9.75 C0.3,10.95 1.2,11.85 2.4,11.85 L36.45,11.85 C37.65,11.85 38.55,10.95 38.55,9.75 C38.55,8.55 37.65,7.65 36.6,7.65 Z M14.4,5.1 L24.6,5.1 L24.6,7.5 L14.4,7.5 L14.4,5.1 Z" id="Shape" fill="#404041" fill-rule="nonzero"></path>
                    </g>
                </g>
            </g>
        </g>
    </g>
</svg>
