
<svg width="43px" height="43px" viewBox="0 0 43 43" version="1.1" xmlns="http://www.w3.org/2000/svg" xmlns:xlink="http://www.w3.org/1999/xlink">
    <!-- Generator: Sketch 45.2 (43514) - http://www.bohemiancoding.com/sketch -->
    <desc>Created with Sketch.</desc>
    <defs></defs>
    <g id="Welcome" stroke="none" stroke-width="1" fill="none" fill-rule="evenodd">
        <g id="Desktop-HD" transform="translate(-365.000000, -5926.000000)">
            <g id="10_Icons" transform="translate(288.000000, 5803.000000)">
                <g id="Surgery" transform="translate(0.000000, 123.000000)">
                    <g id="CCD-Icon-13" transform="translate(77.000000, 0.000000)">
                        <rect id="Rectangle-path" transform="translate(21.500000, 21.500563) rotate(-45.000000) translate(-21.500000, -21.500563) " x="12.3594627" y="12.3600252" width="18.2810747" height="18.2810747"></rect>
                        <path d="M36.96875,21.5 L39.640625,18.828125 C43.859375,14.609375 43.859375,7.578125 39.640625,3.359375 C35.421875,-0.859375 28.390625,-0.859375 24.171875,3.359375 L21.5,6.03125 L18.828125,3.359375 C14.609375,-0.859375 7.578125,-0.859375 3.359375,3.359375 C-0.859375,7.578125 -0.859375,14.609375 3.359375,18.828125 L6.03125,21.5 L3.359375,24.171875 C-0.859375,28.390625 -0.859375,35.421875 3.359375,39.640625 C7.578125,43.859375 14.609375,43.859375 18.828125,39.640625 L21.5,36.96875 L24.171875,39.640625 C28.390625,43.859375 35.421875,43.859375 39.640625,39.640625 C43.859375,35.421875 43.859375,28.390625 39.640625,24.171875 L36.96875,21.5 Z M21.5,34.4375 L8.5625,21.5 L21.5,8.5625 L34.4375,21.5 L21.5,34.4375 Z" id="Shape" fill="#5C5C5C" fill-rule="nonzero"></path>
                    </g>
                </g>
            </g>
        </g>
    </g>
</svg>
