
<svg width="27px" height="45px" viewBox="0 0 27 45" version="1.1" xmlns="http://www.w3.org/2000/svg" xmlns:xlink="http://www.w3.org/1999/xlink">
    <!-- Generator: Sketch 45.2 (43514) - http://www.bohemiancoding.com/sketch -->
    <desc>Created with Sketch.</desc>
    <defs></defs>
    <g id="Welcome" stroke="none" stroke-width="1" fill="none" fill-rule="evenodd">
        <g id="Desktop-HD" transform="translate(-373.000000, -6691.000000)" fill-rule="nonzero" fill="#484848">
            <g id="10_Icons" transform="translate(288.000000, 5803.000000)">
                <g id="Left" transform="translate(0.000000, 888.000000)">
                    <g id="ud-icon-left" transform="translate(84.000000, 0.000000)">
                        <path d="M26.015625,43.3125 C27.5625,41.765625 27.5625,39.375 26.015625,37.6875 L10.96875,22.78125 L26.015625,7.734375 C27.5625,6.1875 27.5625,3.515625 26.015625,1.6875 C25.3125,0.984375 24.328125,0.5625 23.203125,0.5625 C22.078125,0.5625 21.234375,0.984375 20.390625,1.6875 L1.828125,20.25 C1.265625,20.8125 0.984375,21.65625 0.984375,22.5 C0.984375,23.34375 1.265625,24.1875 1.828125,24.75 L20.390625,43.3125 C21.9375,44.859375 24.328125,44.859375 26.015625,43.3125 Z" id="Shape"></path>
                    </g>
                </g>
            </g>
        </g>
    </g>
</svg>
