
<svg width="44px" height="44px" viewBox="0 0 44 44" version="1.1" xmlns="http://www.w3.org/2000/svg" xmlns:xlink="http://www.w3.org/1999/xlink">
    <!-- Generator: Sketch 45.2 (43514) - http://www.bohemiancoding.com/sketch -->
    <desc>Created with Sketch.</desc>
    <defs></defs>
    <g id="Welcome" stroke="none" stroke-width="1" fill="none" fill-rule="evenodd">
        <g id="Desktop-HD" transform="translate(-1220.000000, -6300.000000)" fill-rule="nonzero" fill="#404041">
            <g id="10_Icons" transform="translate(288.000000, 5803.000000)">
                <g id="Search" transform="translate(856.000000, 497.000000)">
                    <g id="ud-icon-search" transform="translate(76.000000, 0.000000)">
                        <path d="M43.03125,38.25 L31.078125,26.296875 C35.4375,19.546875 34.3125,10.265625 28.125,4.921875 C21.796875,-0.5625 12.234375,-0.28125 6.046875,5.34375 C2.8125,8.4375 0.984375,12.515625 0.84375,17.015625 C0.703125,21.515625 2.53125,25.734375 5.625,28.96875 C8.71875,32.0625 12.9375,33.75 17.296875,33.75 C20.53125,33.75 23.625,32.765625 26.296875,31.078125 L38.25,43.03125 C38.953125,43.734375 39.796875,44.015625 40.640625,44.015625 C40.640625,44.015625 40.640625,44.015625 40.640625,44.015625 C41.625,44.015625 42.46875,43.59375 43.03125,43.03125 C43.734375,42.328125 44.015625,41.484375 44.015625,40.640625 C44.15625,39.796875 43.734375,38.8125 43.03125,38.25 Z M24.1875,24.1875 C20.390625,27.984375 14.34375,27.984375 10.546875,24.1875 C6.75,20.390625 6.75,14.34375 10.546875,10.546875 C12.375,8.71875 14.765625,7.734375 17.296875,7.734375 C19.828125,7.734375 22.21875,8.71875 24.046875,10.546875 C27.984375,14.34375 27.984375,20.390625 24.1875,24.1875 Z" id="Shape"></path>
                    </g>
                </g>
            </g>
        </g>
    </g>
</svg>
