
<svg width="53px" height="45px" viewBox="0 0 53 45" version="1.1" xmlns="http://www.w3.org/2000/svg" xmlns:xlink="http://www.w3.org/1999/xlink">
    <!-- Generator: Sketch 45.2 (43514) - http://www.bohemiancoding.com/sketch -->
    <desc>Created with Sketch.</desc>
    <defs></defs>
    <g id="Welcome" stroke="none" stroke-width="1" fill="none" fill-rule="evenodd">
        <g id="Desktop-HD" transform="translate(-645.000000, -6117.000000)">
            <g id="10_Icons" transform="translate(288.000000, 5803.000000)">
                <g id="Provider" transform="translate(285.000000, 314.000000)">
                    <g id="ud-icon-provider" transform="translate(72.000000, 0.000000)">
                        <path d="M19.5882353,20.9117647 L32.8235294,20.9117647 C33.6176471,20.9117647 34.2794118,20.25 34.2794118,19.4558824 C34.2794118,18.6617647 33.6176471,18 32.8235294,18 L19.5882353,18 C18.7941176,18 18.1323529,18.6617647 18.1323529,19.4558824 C18.1323529,20.3823529 18.7941176,20.9117647 19.5882353,20.9117647 Z" id="Shape"></path>
                        <path d="M24.0882353,13.8970588 L25.1470588,13.8970588 L25.1470588,14.8235294 C25.1470588,15.6176471 25.8088235,16.2794118 26.6029412,16.2794118 C27.3970588,16.2794118 28.0588235,15.6176471 28.0588235,14.8235294 L28.0588235,13.8970588 L29.1176471,13.8970588 C29.9117647,13.8970588 30.5735294,13.2352941 30.5735294,12.4411765 C30.5735294,11.6470588 29.9117647,10.9852941 29.1176471,10.9852941 L28.0588235,10.9852941 L28.0588235,9.92647059 C28.0588235,9.13235294 27.3970588,8.47058824 26.6029412,8.47058824 C25.8088235,8.47058824 25.1470588,9.13235294 25.1470588,9.92647059 L25.1470588,10.9852941 L24.0882353,10.9852941 C23.2941176,10.9852941 22.6323529,11.6470588 22.6323529,12.4411765 C22.6323529,13.2352941 23.2941176,13.8970588 24.0882353,13.8970588 Z" id="Shape"></path>
                        <path d="M21.1764706,28.1911765 C21.1764706,27.3970588 21.8382353,26.7352941 22.6323529,26.7352941 L30.3088235,26.7352941 C31.1029412,26.7352941 31.7647059,27.3970588 31.7647059,28.1911765 L31.7647059,41.2941176 L34.6764706,41.2941176 L34.6764706,28.1911765 C34.6764706,25.8088235 32.6911765,23.8235294 30.3088235,23.8235294 L22.6323529,23.8235294 C20.25,23.8235294 18.2647059,25.8088235 18.2647059,28.1911765 L18.2647059,41.2941176 L21.1764706,41.2941176 L21.1764706,28.1911765 Z" id="Shape"></path>
                        <path d="M43.2794118,41.2941176 L43.2794118,4.63235294 C43.2794118,2.51470588 41.5588235,0.794117647 39.4411765,0.794117647 L13.5,0.794117647 C11.3823529,0.794117647 9.66176471,2.51470588 9.66176471,4.63235294 L9.66176471,41.2941176 L2.11764706,41.2941176 C1.32352941,41.2941176 0.661764706,41.9558824 0.661764706,42.75 C0.661764706,43.5441176 1.32352941,44.2058824 2.11764706,44.2058824 L50.8235294,44.2058824 C51.6176471,44.2058824 52.2794118,43.5441176 52.2794118,42.75 C52.2794118,41.9558824 51.6176471,41.2941176 50.8235294,41.2941176 L43.2794118,41.2941176 Z M24.0882353,10.9852941 L25.1470588,10.9852941 L25.1470588,9.92647059 C25.1470588,9.13235294 25.8088235,8.47058824 26.6029412,8.47058824 C27.3970588,8.47058824 28.0588235,9.13235294 28.0588235,9.92647059 L28.0588235,10.9852941 L29.1176471,10.9852941 C29.9117647,10.9852941 30.5735294,11.6470588 30.5735294,12.4411765 C30.5735294,13.2352941 29.9117647,13.8970588 29.1176471,13.8970588 L28.0588235,13.8970588 L28.0588235,14.8235294 C28.0588235,15.6176471 27.3970588,16.2794118 26.6029412,16.2794118 C25.8088235,16.2794118 25.1470588,15.6176471 25.1470588,14.8235294 L25.1470588,13.8970588 L24.0882353,13.8970588 C23.2941176,13.8970588 22.6323529,13.2352941 22.6323529,12.4411765 C22.6323529,11.6470588 23.2941176,10.9852941 24.0882353,10.9852941 Z M19.5882353,18.1323529 L32.8235294,18.1323529 C33.6176471,18.1323529 34.2794118,18.7941176 34.2794118,19.5882353 C34.2794118,20.3823529 33.6176471,21.0441176 32.8235294,21.0441176 L19.5882353,21.0441176 C18.7941176,21.0441176 18.1323529,20.3823529 18.1323529,19.5882353 C18.1323529,18.6617647 18.7941176,18.1323529 19.5882353,18.1323529 Z M18.2647059,28.1911765 C18.2647059,25.8088235 20.25,23.8235294 22.6323529,23.8235294 L30.3088235,23.8235294 C32.6911765,23.8235294 34.6764706,25.8088235 34.6764706,28.1911765 L34.6764706,41.2941176 L31.7647059,41.2941176 L31.7647059,28.1911765 C31.7647059,27.3970588 31.1029412,26.7352941 30.3088235,26.7352941 L22.6323529,26.7352941 C21.8382353,26.7352941 21.1764706,27.3970588 21.1764706,28.1911765 L21.1764706,41.2941176 L18.2647059,41.2941176 L18.2647059,28.1911765 L18.2647059,28.1911765 Z" id="Shape" fill="#525252" fill-rule="nonzero"></path>
                    </g>
                </g>
            </g>
        </g>
    </g>
</svg>
