
<svg width="22px" height="22px" viewBox="0 0 22 22" version="1.1" xmlns="http://www.w3.org/2000/svg" xmlns:xlink="http://www.w3.org/1999/xlink">
    <!-- Generator: Sketch 45.1 (43504) - http://www.bohemiancoding.com/sketch -->
    <desc>Created with Sketch.</desc>
    <defs>
        <polygon id="path-1" points="0.000219047619 0 21.9589214 0 21.9589214 11.08239 0.000219047619 11.08239"></polygon>
    </defs>
    <g id="Welcome" stroke="none" stroke-width="1" fill="none" fill-rule="evenodd">
        <g id="Desktop-HD" transform="translate(-1233.000000, -1974.000000)">
            <g id="Group-15" transform="translate(1233.000000, 1962.000000)">
                <g id="Page-1" transform="translate(0.000000, 12.000000)">
                    <g id="Group-3">
                        <mask id="mask-2" fill="white">
                            <use xlink:href="#path-1"></use>
                        </mask>
                        <g id="Clip-2"></g>
                        <path d="M0.246647619,5.93989 L10.7609333,10.99989 C10.8704571,11.10989 11.0895048,11.10989 11.1990286,10.99989 L21.7133143,5.93989 C22.0407905,5.82989 22.0407905,5.27989 21.7133143,5.16989 L11.1990286,-0.00011 L10.7609333,-0.00011 L0.246647619,5.05989 C-0.0819238095,5.27989 -0.0819238095,5.71989 0.246647619,5.93989" id="Fill-1" fill="#2D9D9C" mask="url(#mask-2)"></path>
                    </g>
                    <path d="M20.2892857,8.91011 L10.9797619,14.19011 L1.6702381,8.91011 C1.12261905,8.69011 0.46547619,8.80011 0.136904762,9.35011 C-0.0821428571,9.90011 0.0273809524,10.56011 0.575,10.89011 L10.322619,16.39011 C10.5416667,16.50011 10.7607143,16.50011 10.9797619,16.50011 C11.1988095,16.50011 11.527381,16.39011 11.7464286,16.28011 L21.3845238,10.78011 C21.9321429,10.56011 22.0416667,9.90011 21.822619,9.35011 C21.4940476,8.80011 20.8369048,8.69011 20.2892857,8.91011" id="Fill-4" fill="#2D9D9C"></path>
                    <path d="M20.2892857,14.40956 L10.9797619,19.69066 L1.6702381,14.40956 C1.12261905,14.18956 0.46547619,14.29956 0.136904762,14.84956 C-0.0821428571,15.39956 0.0273809524,16.05956 0.575,16.39066 L10.322619,21.89066 C10.5416667,21.99956 10.7607143,21.99956 10.9797619,21.99956 C11.1988095,21.99956 11.527381,21.89066 11.7464286,21.77956 L21.3845238,16.27956 C21.9321429,15.94956 22.1511905,15.29066 21.822619,14.74066 C21.4940476,14.29956 20.8369048,14.18956 20.2892857,14.40956" id="Fill-6" fill="#2D9D9C"></path>
                </g>
            </g>
        </g>
    </g>
</svg>
