
<svg width="38px" height="38px" viewBox="0 0 38 38" version="1.1" xmlns="http://www.w3.org/2000/svg" xmlns:xlink="http://www.w3.org/1999/xlink">
    <!-- Generator: Sketch 45.2 (43514) - http://www.bohemiancoding.com/sketch -->
    <desc>Created with Sketch.</desc>
    <defs></defs>
    <g id="Welcome" stroke="none" stroke-width="1" fill="none" fill-rule="evenodd">
        <g id="Desktop-HD" transform="translate(-1223.000000, -6497.000000)" fill-rule="nonzero" fill="white">
            <g id="10_Icons" transform="translate(288.000000, 5803.000000)">
                <g id="Exit" transform="translate(856.000000, 694.000000)">
                    <g id="ud-icon-exit" transform="translate(79.000000, 0.000000)">
                        <path d="M36.2,29.6 L25.6,19 L36.2,8.4 C38,6.6 38,3.6 36.2,1.8 C34.4,-1.82076576e-13 31.4,-1.82076576e-13 29.6,1.8 L19,12.4 L8.4,1.8 C6.6,-1.82076576e-13 3.6,-1.82076576e-13 1.8,1.8 C-1.82076576e-13,3.6 -1.82076576e-13,6.6 1.8,8.4 L12.4,19 L1.8,29.6 C-1.82076576e-13,31.4 -1.82076576e-13,34.4 1.8,36.2 C3.6,38 6.6,38 8.4,36.2 L19,25.6 L29.6,36.2 C31.4,38 34.4,38 36.2,36.2 C38,34.4 38,31.4 36.2,29.6 Z" id="Shape"></path>
                    </g>
                </g>
            </g>
        </g>
    </g>
</svg>
