
<svg width="45px" height="45px" viewBox="0 0 45 45" version="1.1" xmlns="http://www.w3.org/2000/svg" xmlns:xlink="http://www.w3.org/1999/xlink">
    <!-- Generator: Sketch 45.2 (43514) - http://www.bohemiancoding.com/sketch -->
    <desc>Created with Sketch.</desc>
    <defs></defs>
    <g id="Welcome" stroke="none" stroke-width="1" fill="none" fill-rule="evenodd">
        <g id="Desktop-HD" transform="translate(-649.000000, -6300.000000)" fill-rule="nonzero" fill="#484848">
            <g id="10_Icons" transform="translate(288.000000, 5803.000000)">
                <g id="Warning" transform="translate(285.000000, 497.000000)">
                    <g id="ud-icon-warning" transform="translate(76.000000, 0.000000)">
                        <path d="M22.5,0 C10.125,0 0,10.125 0,22.5 C0,34.875 10.125,45 22.5,45 C34.875,45 45,34.875 45,22.5 C45,10.125 34.875,0 22.5,0 Z M19.75,9.5 C20.5,8.75 21.375,8.25 22.5,8.25 C23.625,8.25 24.5,8.625 25.25,9.5 C26,10.25 26.25,11.25 26.125,12.375 L25.125,26 C25,27.625 24,28.5 22.5,28.5 C21,28.5 20,27.5 19.875,26 L19.875,26 L18.75,12.375 C18.75,11.25 19.125,10.25 19.75,9.5 Z M26.25,33.25 C26.25,34.25 25.875,35.125 25.25,35.75 C24.625,36.375 23.75,36.625 22.75,36.625 L22.25,36.625 C21.25,36.625 20.375,36.25 19.75,35.625 C19.125,35 18.75,34.125 18.75,33.125 L18.75,32.5 C18.75,31.5 19.125,30.625 19.75,30 C20.375,29.375 21.25,29 22.25,29 L22.75,29 C23.75,29 24.625,29.375 25.25,30 C25.875,30.625 26.25,31.5 26.25,32.5 L26.25,33.25 Z" id="Shape"></path>
                    </g>
                </g>
            </g>
        </g>
    </g>
</svg>
