
<svg width="44px" height="45px" viewBox="0 0 44 45" version="1.1" xmlns="http://www.w3.org/2000/svg" xmlns:xlink="http://www.w3.org/1999/xlink">
    <!-- Generator: Sketch 45.2 (43514) - http://www.bohemiancoding.com/sketch -->
    <desc>Created with Sketch.</desc>
    <defs></defs>
    <g id="Welcome" stroke="none" stroke-width="1" fill="none" fill-rule="evenodd">
        <g id="Desktop-HD" transform="translate(-935.000000, -5925.000000)" fill-rule="nonzero" fill="#484848">
            <g id="10_Icons" transform="translate(288.000000, 5803.000000)">
                <g id="Calendar" transform="translate(571.000000, 122.000000)">
                    <g id="Group-12" transform="translate(76.000000, 0.000000)">
                        <path d="M39.3058968,6.96560197 L39.3058968,6.96560197 C39.3058968,9.70208845 37.1913391,11.8166462 34.5792383,11.8166462 C31.9671376,11.8166462 29.8525799,9.70208845 29.8525799,7.08998771 L29.8525799,6.71683047 L26.6185504,6.71683047 L26.6185504,7.08998771 C26.6185504,9.70208845 24.5039926,11.8166462 21.8918919,11.8166462 C19.2797912,11.8166462 17.1652334,9.70208845 17.1652334,7.08998771 L17.1652334,6.71683047 L13.9312039,6.71683047 L13.9312039,7.08998771 C13.9312039,9.70208845 11.8166462,11.8166462 9.20454545,11.8166462 C6.71683047,11.8166462 4.60227273,9.8264742 4.47788698,7.33875921 C2.23894349,8.33384521 0.621928747,10.6971744 0.621928747,13.3092752 L0.621928747,38.3108108 C0.621928747,41.9179975 3.60718673,44.9032555 7.21437346,44.9032555 L37.3157248,44.9032555 C40.9229115,44.9032555 43.9081695,41.9179975 43.9081695,38.3108108 L43.9081695,13.1848894 C44.0325553,10.1996314 42.0423833,7.71191646 39.3058968,6.96560197 Z" id="Shape"></path>
                        <path d="M9.3289312,9.08015971 C10.4484029,9.08015971 11.3191032,8.20945946 11.3191032,7.08998771 L11.3191032,2.11455774 C11.3191032,0.995085995 10.4484029,0.124385749 9.3289312,0.124385749 C8.20945946,0.124385749 7.33875921,0.995085995 7.33875921,2.11455774 L7.33875921,7.08998771 C7.33875921,8.08507371 8.20945946,9.08015971 9.3289312,9.08015971 Z" id="Shape"></path>
                        <path d="M34.5792383,9.08015971 C35.6987101,9.08015971 36.5694103,8.20945946 36.5694103,7.08998771 L36.5694103,2.11455774 C36.5694103,0.995085995 35.6987101,0.124385749 34.5792383,0.124385749 C33.4597666,0.124385749 32.5890663,0.995085995 32.5890663,2.11455774 L32.5890663,7.08998771 C32.5890663,8.08507371 33.4597666,9.08015971 34.5792383,9.08015971 Z" id="Shape"></path>
                        <path d="M22.0162776,9.08015971 C23.1357494,9.08015971 24.0064496,8.20945946 24.0064496,7.08998771 L24.0064496,2.11455774 C24.0064496,0.995085995 23.1357494,0.124385749 22.0162776,0.124385749 C20.8968059,0.124385749 20.0261057,0.995085995 20.0261057,2.11455774 L20.0261057,7.08998771 C20.0261057,8.08507371 20.8968059,9.08015971 22.0162776,9.08015971 Z" id="Shape"></path>
                    </g>
                </g>
            </g>
        </g>
    </g>
</svg>
