
<svg width="39px" height="43px" viewBox="0 0 39 43" version="1.1" xmlns="http://www.w3.org/2000/svg" xmlns:xlink="http://www.w3.org/1999/xlink">
    <!-- Generator: Sketch 45.2 (43514) - http://www.bohemiancoding.com/sketch -->
    <desc>Created with Sketch.</desc>
    <defs></defs>
    <g id="Welcome" stroke="none" stroke-width="1" fill="none" fill-rule="evenodd">
        <g id="Desktop-HD" transform="translate(-1223.000000, -6692.000000)" fill-rule="nonzero" fill="#484848">
            <g id="10_Icons" transform="translate(288.000000, 5803.000000)">
                <g id="Transfer" transform="translate(856.000000, 889.000000)">
                    <g id="ud-icon-transfer" transform="translate(79.000000, 0.000000)">
                        <path d="M35.55,29.45 L10.05,29.45 L13.35,26.15 C14.4,25.1 14.4,23.45 13.35,22.4 C12.3,21.35 10.65,21.35 9.6,22.4 L1.05,30.95 C0.75,31.25 0.6,31.7 0.6,32.15 C0.6,32.6 0.75,33.05 1.05,33.35 L9.6,41.9 C10.05,42.35 10.8,42.65 11.55,42.65 C12.3,42.65 12.9,42.35 13.5,41.9 C14.1,41.45 14.25,40.7 14.25,39.95 C14.25,39.2 13.95,38.6 13.5,38 L10.2,34.7 L35.85,34.7 C36.6,34.7 37.5,34.4 37.95,33.65 C38.4,33.2 38.55,32.6 38.4,32.3 C38.25,30.65 37.05,29.45 35.55,29.45 Z" id="Shape"></path>
                        <path d="M3.3,13.55 L28.95,13.55 L25.65,16.85 C25.2,17.3 24.9,18.05 24.9,18.8 C24.9,19.55 25.2,20.15 25.65,20.75 C26.1,21.2 26.85,21.5 27.6,21.5 C28.35,21.5 28.95,21.2 29.55,20.75 L38.1,12.2 C38.4,11.9 38.55,11.45 38.55,11 C38.55,10.55 38.4,10.1 38.1,9.8 L29.55,1.25 C28.5,0.2 26.85,0.2 25.8,1.25 C25.35,1.7 25.05,2.45 25.05,3.2 C25.05,3.95 25.35,4.55 25.8,5.15 L29.1,8.45 L3.3,8.45 C1.95,8.45 0.6,9.65 0.6,10.85 C0.6,12.35 1.8,13.55 3.3,13.55 Z" id="Shape"></path>
                    </g>
                </g>
            </g>
        </g>
    </g>
</svg>
