
<svg width="28px" height="45px" viewBox="0 0 28 45" version="1.1" xmlns="http://www.w3.org/2000/svg" xmlns:xlink="http://www.w3.org/1999/xlink">
    <!-- Generator: Sketch 45.2 (43514) - http://www.bohemiancoding.com/sketch -->
    <desc>Created with Sketch.</desc>
    <defs></defs>
    <g id="Welcome" stroke="none" stroke-width="1" fill="none" fill-rule="evenodd">
        <g id="Desktop-HD" transform="translate(-657.000000, -6691.000000)" fill-rule="nonzero" fill="#484848">
            <g id="10_Icons" transform="translate(288.000000, 5803.000000)">
                <g id="Right" transform="translate(285.000000, 888.000000)">
                    <g id="ud-icon-right" transform="translate(84.000000, 0.000000)">
                        <path d="M2.109375,1.6875 C0.5625,3.234375 0.5625,5.625 2.109375,7.3125 L17.15625,22.21875 L2.109375,37.265625 C0.5625,38.8125 0.5625,41.484375 2.109375,43.3125 C2.8125,44.015625 3.796875,44.4375 4.921875,44.4375 C6.046875,44.4375 6.890625,44.015625 7.734375,43.3125 L26.296875,24.75 C26.859375,24.1875 27.140625,23.34375 27.140625,22.5 C27.140625,21.65625 26.859375,20.8125 26.296875,20.25 L7.734375,1.6875 C6.1875,0.140625 3.796875,0.140625 2.109375,1.6875 Z" id="Shape"></path>
                    </g>
                </g>
            </g>
        </g>
    </g>
</svg>
