
<svg width="67px" height="45px" viewBox="0 0 67 45" version="1.1" xmlns="http://www.w3.org/2000/svg" xmlns:xlink="http://www.w3.org/1999/xlink">
    <!-- Generator: Sketch 45.2 (43514) - http://www.bohemiancoding.com/sketch -->
    <desc>Created with Sketch.</desc>
    <defs></defs>
    <g id="Welcome" stroke="none" stroke-width="1" fill="none" fill-rule="evenodd">
        <g id="Desktop-HD" transform="translate(-638.000000, -5926.000000)" fill-rule="nonzero" fill="#525252">
            <g id="10_Icons" transform="translate(288.000000, 5803.000000)">
                <g id="Talk" transform="translate(285.000000, 123.000000)">
                    <g id="Group-13" transform="translate(65.000000, 0.000000)">
                        <path d="M60.8845515,0.130813953 L29.7695183,0.130813953 C27.2466777,0.130813953 25.0602159,1.81270764 24.3874585,4.1673588 L37.6744186,4.1673588 C42.7200997,4.1673588 46.7566445,8.20390365 46.7566445,13.2495847 L46.7566445,29.3957641 L48.4385382,29.3957641 L56.6798173,36.9642857 C57.6889535,37.9734219 59.5390365,37.1324751 59.5390365,35.7869601 L59.7072259,29.3957641 L61.2209302,29.3957641 C64.2483389,29.3957641 66.7711794,26.8729236 66.7711794,23.845515 L66.7711794,5.68106312 C66.4348007,2.48546512 64.0801495,0.130813953 60.8845515,0.130813953 Z" id="Shape"></path>
                        <path d="M37.5062292,36.9642857 L19.0053987,36.9642857 L10.7641196,44.5328073 C9.75498339,45.5419435 7.90490033,44.7009967 7.90490033,43.3554817 L7.73671096,36.9642857 L6.39119601,36.9642857 C3.36378738,36.9642857 0.840946844,34.4414452 0.840946844,31.4140365 L0.840946844,13.0813953 C0.840946844,10.0539867 3.36378738,7.53114618 6.39119601,7.53114618 L37.6744186,7.53114618 C40.7018272,7.53114618 43.2246678,10.0539867 43.2246678,13.0813953 L43.2246678,31.2458472 C43.0564784,34.4414452 40.7018272,36.9642857 37.5062292,36.9642857 Z" id="Shape"></path>
                    </g>
                </g>
            </g>
        </g>
    </g>
</svg>
