
<svg width="37px" height="45px" viewBox="0 0 37 45" version="1.1" xmlns="http://www.w3.org/2000/svg" xmlns:xlink="http://www.w3.org/1999/xlink">
    <!-- Generator: Sketch 45.2 (43514) - http://www.bohemiancoding.com/sketch -->
    <desc>Created with Sketch.</desc>
    <defs></defs>
    <g id="Welcome" stroke="none" stroke-width="1" fill="none" fill-rule="evenodd">
        <g id="Desktop-HD" transform="translate(-938.000000, -6117.000000)" fill-rule="nonzero" fill="#3F3F3F">
            <g id="10_Icons" transform="translate(288.000000, 5803.000000)">
                <g id="Bloodwork" transform="translate(571.000000, 314.000000)">
                    <g id="ud-icon-bloodwork" transform="translate(79.000000, 0.000000)">
                        <path d="M31.5,12.1764706 L21.4411765,2.11764706 C19.8529412,0.529411765 17.2058824,0.529411765 15.6176471,2.11764706 L5.55882353,12.1764706 C-5.69117647,23.4264706 1.32352941,43.1470588 17.2058824,44.0735294 C17.6029412,44.0735294 18.1323529,44.0735294 18.5294118,44.0735294 L18.5294118,44.0735294 C18.9264706,44.0735294 19.4558824,44.0735294 19.8529412,44.0735294 C35.7352941,43.1470588 42.75,23.4264706 31.5,12.1764706 Z M16.0147059,38.9117647 C12.4411765,38.3823529 9.39705882,36.5294118 7.14705882,33.75 C6.61764706,33.0882353 6.75,32.1617647 7.41176471,31.7647059 C7.94117647,31.3676471 8.73529412,31.5 9.13235294,32.0294118 C9.66176471,32.8235294 10.3235294,33.3529412 11.1176471,34.0147059 C11.9117647,34.6764706 12.8382353,35.2058824 13.7647059,35.6029412 C14.5588235,36 15.4852941,36.1323529 16.4117647,36.3970588 C17.0735294,36.5294118 17.4705882,37.0588235 17.4705882,37.7205882 C17.6029412,38.3823529 16.8088235,38.9117647 16.0147059,38.9117647 Z" id="Shape"></path>
                    </g>
                </g>
            </g>
        </g>
    </g>
</svg>
