
<svg width="44px" height="45px" viewBox="0 0 44 45" version="1.1" xmlns="http://www.w3.org/2000/svg" xmlns:xlink="http://www.w3.org/1999/xlink">
    <!-- Generator: Sketch 45.2 (43514) - http://www.bohemiancoding.com/sketch -->
    <desc>Created with Sketch.</desc>
    <defs></defs>
    <g id="Welcome" stroke="none" stroke-width="1" fill="none" fill-rule="evenodd">
        <g id="Desktop-HD" transform="translate(-646.000000, -6490.000000)" fill-rule="nonzero" fill="#484848">
            <g id="10_Icons" transform="translate(288.000000, 5803.000000)">
                <g id="Collapse" transform="translate(285.000000, 687.000000)">
                    <g id="ud-icon-collapse" transform="translate(97.781250, 26.218750) rotate(90.000000) translate(-97.781250, -26.218750) translate(71.781250, 1.218750)">
                        <path d="M10.15625,19.375 L3.75,19.375 C2.03125,19.375 0.9375,20.78125 0.625,22.5 C0.625,24.21875 2.03125,25.625 3.4375,25.3125 L18.75,25.3125 C19.53125,25.3125 20.15625,24.53125 20.15625,23.90625 L20.15625,8.59375 C20.15625,6.875 18.75,5.78125 17.34375,5.78125 C15.625,5.78125 14.53125,7.1875 14.53125,8.59375 L14.53125,15 L8.125,8.59375 C6.875,7.34375 5,7.34375 3.75,8.59375 L3.75,8.59375 C2.5,9.84375 2.5,11.71875 3.75,12.96875 L10.15625,19.375 Z" id="Shape"></path>
                        <path d="M41.25,42.1875 L34.84375,35.78125 L41.25,35.78125 C42.96875,35.78125 44.375,34.375 44.375,32.65625 C44.375,30.9375 42.96875,29.84375 41.5625,29.84375 L26.25,29.84375 C25.46875,29.84375 24.84375,30.625 24.84375,31.25 L24.84375,46.5625 C24.84375,48.28125 26.25,49.6875 27.96875,49.6875 C29.6875,49.6875 30.78125,48.28125 31.09375,46.5625 L31.09375,40.15625 L37.5,46.5625 C38.75,47.8125 40.625,47.8125 41.875,46.5625 L41.875,46.5625 C42.5,45.3125 42.5,43.28125 41.25,42.1875 Z" id="Shape"></path>
                    </g>
                </g>
            </g>
        </g>
    </g>
</svg>
