
<svg width="40px" height="39px" viewBox="0 0 40 39" version="1.1" xmlns="http://www.w3.org/2000/svg" xmlns:xlink="http://www.w3.org/1999/xlink">
    <!-- Generator: Sketch 45.2 (43514) - http://www.bohemiancoding.com/sketch -->
    <desc>Created with Sketch.</desc>
    <defs></defs>
    <g id="Welcome" stroke="none" stroke-width="1" fill="none" fill-rule="evenodd">
        <g id="Desktop-HD" transform="translate(-366.000000, -6496.000000)" fill-rule="nonzero" fill="#484848">
            <g id="10_Icons" transform="translate(288.000000, 5803.000000)">
                <g id="Expand" transform="translate(0.000000, 693.000000)">
                    <g id="ud-icon-expand" transform="translate(98.000000, 19.500000) rotate(90.000000) translate(-98.000000, -19.500000) translate(78.500000, -0.500000)">
                        <path d="M0.857142857,2.42857143 L0.857142857,17.7142857 C0.857142857,19.4285714 2.28571429,20.5714286 3.71428571,20.5714286 C5.14285714,20.5714286 6.57142857,19.1428571 6.57142857,17.7142857 L6.57142857,11.2857143 L28.7142857,33.4285714 L22.2857143,33.4285714 C20.5714286,33.4285714 19.4285714,34.8571429 19.4285714,36.2857143 C19.4285714,37.7142857 20.8571429,39.1428571 22.2857143,39.1428571 L37.5714286,39.1428571 C38.2857143,39.1428571 39,38.4285714 39,37.7142857 L39,22.5714286 C39,20.8571429 37.5714286,19.7142857 36.1428571,19.7142857 C34.7142857,19.7142857 33.2857143,21.1428571 33.2857143,22.5714286 L33.2857143,29 L11.1428571,6.71428571 L17.5714286,6.71428571 C19.2857143,6.71428571 20.4285714,5.28571429 20.4285714,3.85714286 C20.4285714,2.14285714 19,0.714285714 17.5714286,0.714285714 L2.28571429,0.714285714 C1.42857143,0.857142857 0.857142857,1.57142857 0.857142857,2.42857143 Z" id="Shape"></path>
                    </g>
                </g>
            </g>
        </g>
    </g>
</svg>
