
<svg width="40px" height="45px" viewBox="0 0 40 45" version="1.1" xmlns="http://www.w3.org/2000/svg" xmlns:xlink="http://www.w3.org/1999/xlink">
    <!-- Generator: Sketch 45.2 (43514) - http://www.bohemiancoding.com/sketch -->
    <desc>Created with Sketch.</desc>
    <defs></defs>
    <g id="Welcome" stroke="none" stroke-width="1" fill="none" fill-rule="evenodd">
        <g id="Desktop-HD" transform="translate(-366.000000, -6300.000000)" fill-rule="nonzero" fill="#484848">
            <g id="10_Icons" transform="translate(288.000000, 5803.000000)">
                <g id="Alert" transform="translate(0.000000, 497.000000)">
                    <g id="ud-icon-alert" transform="translate(78.000000, 0.000000)">
                        <path d="M34.625,30.625 L34.375,30.625 L34.375,20 C34.375,14 30.75,8.875 25.625,6.75 C25.625,6.625 25.625,6.625 25.625,6.5 C25.625,3.375 23.125,0.875 20,0.875 C16.875,0.875 14.375,3.375 14.375,6.5 C14.375,6.625 14.375,6.625 14.375,6.75 C9.25,9 5.625,14.125 5.625,20 L5.625,30.625 L5.375,30.625 C2.5,30.625 0.125,33 0.125,35.875 L0.125,36.375 C0.125,39.25 2.5,41.625 5.375,41.625 L16.5,41.625 C17,43.125 18.375,44.125 20,44.125 C21.625,44.125 23,43.125 23.5,41.625 L34.625,41.625 C37.5,41.625 39.875,39.25 39.875,36.375 L39.875,35.875 C39.875,33 37.5,30.625 34.625,30.625 Z" id="Shape"></path>
                    </g>
                </g>
            </g>
        </g>
    </g>
</svg>
